<?xml version="1.0" encoding="UTF-8"?>
<svg id="Layer_1" data-name="Layer 1" xmlns="http://www.w3.org/2000/svg" viewBox="0 0 169.66 49.83">
  <defs>
    <style>
      .cls-1, .cls-2 {
        fill: #153c88;
      }

      .cls-3 {
        fill: #e3bb25;
      }

      .cls-3, .cls-2, .cls-4, .cls-5 {
        fill-rule: evenodd;
      }

      .cls-4, .cls-6 {
        fill: #de2737;
      }

      .cls-5 {
        fill: #ffcc4e;
      }
    </style>
  </defs>
  <g>
    <path class="cls-1" d="m77.21,5.28h8.89v38.8h-8.89v-15.41h-12.23v15.41h-8.89V5.28h8.89v14.86h12.23V5.28Z"/>
    <path class="cls-1" d="m109.89,16.37h8.34v27.72h-8.34v-2.61c-1.95,2.27-4.72,3.38-8.28,3.38s-6.78-1.39-9.39-4.21c-2.61-2.83-3.89-6.32-3.89-10.42s1.28-7.54,3.89-10.37c2.61-2.83,5.72-4.27,9.39-4.27s6.34,1.11,8.28,3.38v-2.61Zm-6.61,20.62c1.95,0,3.56-.61,4.78-1.83,1.22-1.22,1.83-2.88,1.83-4.93s-.61-3.71-1.83-4.93c-1.22-1.22-2.83-1.83-4.78-1.83s-3.56.61-4.78,1.83c-1.22,1.22-1.83,2.88-1.83,4.93s.61,3.71,1.83,4.93c1.22,1.22,2.83,1.83,4.78,1.83Z"/>
    <path class="cls-1" d="m121.56,5.28h8.89v25.5c0,3.6,2.06,5.43,6.11,5.43s6.11-1.83,6.11-5.43V5.28h8.89v26.28c0,4.05-1.39,7.32-4.22,9.7-2.83,2.38-6.39,3.6-10.78,3.6s-7.95-1.22-10.78-3.6c-2.83-2.38-4.22-5.65-4.22-9.7V5.28Z"/>
    <path class="cls-1" d="m155.19,5.28h8.89v38.8h-8.89V5.28Z"/>
  </g>
  <g>
    <path class="cls-2" d="m10.89,4.74h34.57c1.5,0,2.72,1.22,2.72,2.71v34.48c0,1.49-1.22,2.71-2.72,2.71H10.89c-1.5,0-2.72-1.22-2.72-2.71V7.45c0-1.49,1.22-2.71,2.72-2.71"/>
    <path class="cls-5" d="m11,5.31h34.34c1.24,0,2.26,1.01,2.26,2.25v34.25c0,1.24-1.02,2.26-2.26,2.26H11c-1.24,0-2.26-1.02-2.26-2.26V7.56c0-1.24,1.02-2.25,2.26-2.25"/>
    <path class="cls-4" d="m11.78,34.1h32.47c.12,0,.23,0,.31,0v.04c-.08,0-.19.02-.33.04-13.02,1.36-24.02,3.64-32.45,7.32v-7.39Z"/>
    <path class="cls-6" d="m29.06,11.13c2.19.05,4.17.93,5.65,2.33l.58-.58c-1.62-1.55-3.81-2.53-6.23-2.57v.82Zm6.59,1.65l-1.04,1.04c1.43,1.42,2.32,3.37,2.37,5.53h1.48c-.05-2.57-1.11-4.89-2.81-6.58Zm.92,6.76h2.3c0,2.69-1.07,5.13-2.8,6.92l-1.63-1.62c1.32-1.38,2.12-3.24,2.12-5.3Zm-7.51,10.38c1.34-.02,2.61-.3,3.79-.79,1.28-.53,2.43-1.3,3.38-2.25l-2.21-2.2c-.68.67-1.48,1.22-2.36,1.58-.8.33-1.68.52-2.61.55v3.11Zm-.19-3.44v3.77c-2.9,0-5.53-1.15-7.46-3.01l2.67-2.66c1.25,1.18,2.93,1.9,4.79,1.9Zm-11.07-6.76c.05,2.97,1.28,5.66,3.24,7.62h0l3.13-3.13c-1.16-1.16-1.89-2.74-1.94-4.49h-4.43Zm6.48-4.5c-1.06,1.13-1.72,2.64-1.72,4.31h0s-5.09,0-5.09,0h0c0-3.07,1.22-5.86,3.21-7.9l3.6,3.59Zm-3.76-4.01c2.14-2.13,5.09-3.45,8.35-3.45v5.9c-1.63,0-3.1.66-4.17,1.72l-4.18-4.17Z"/>
    <polygon class="cls-3" points="25.07 11 25.4 10.05 25.7 11 26.72 11 25.91 11.58 26.23 12.56 25.4 11.95 24.58 12.55 24.9 11.59 24.11 11 25.07 11"/>
    <path class="cls-2" d="m29.99,20.71c.25-.03.49-.07.71-.11-.07-.22-.16-.44-.26-.67-.07.13-.14.27-.22.4-.08.13-.16.26-.24.39m-3.26-2.14c-.17.04-.33.09-.47.15-.62.23-1,.52-1,.83s.38.6,1,.83c.14.05.3.1.47.15.1-.31.23-.64.39-.98-.16-.34-.29-.66-.39-.98Zm1.03-.19c-.25.03-.49.07-.71.11.07.22.16.44.26.67.07-.13.14-.26.22-.4.08-.13.16-.26.24-.39Zm1.81-.04c-.23-.02-.46-.02-.7-.02s-.47,0-.7.02c-.13.19-.25.38-.37.59-.12.21-.23.41-.33.61.1.21.21.42.33.63.12.2.24.4.36.58.23.02.46.02.7.02s.47,0,.7-.02c.13-.19.25-.38.37-.59.12-.21.23-.41.33-.62-.1-.2-.2-.4-.32-.6-.12-.21-.25-.41-.38-.6Zm1.13.15c-.22-.05-.46-.09-.71-.11.08.13.16.26.24.4.07.13.15.26.21.39.1-.23.19-.46.26-.67Zm.79.22c-.14-.05-.3-.1-.47-.15-.1.31-.23.64-.39.98.16.34.29.67.39.98.17-.04.32-.09.47-.15.62-.23,1-.52,1-.83s-.38-.6-1-.83Zm-4.54-.54c.32-.07.67-.12,1.04-.15.21-.3.43-.58.65-.82-.12-.12-.24-.23-.35-.32-.51-.42-.95-.6-1.22-.45-.27.15-.33.63-.22,1.28.03.15.06.3.1.47Zm2.37,2.91c-.15,0-.3,0-.46,0s-.31,0-.46-.01c.15.2.3.39.46.56.15-.17.31-.36.46-.56Zm1.47-.18c-.32.07-.67.12-1.05.15-.21.31-.44.58-.66.83.12.13.25.24.37.34.51.42.95.6,1.22.45.27-.15.33-.63.22-1.28-.03-.16-.06-.32-.11-.49Zm.32-2.66c.17.05.34.1.49.15.75.28,1.22.68,1.22,1.14s-.46.86-1.22,1.14c-.15.06-.31.11-.49.15.05.18.09.35.12.51.14.79.02,1.39-.38,1.62-.4.23-.98.03-1.6-.48-.13-.11-.26-.22-.39-.35-.13.13-.25.24-.37.34-.62.51-1.2.71-1.6.48-.4-.23-.52-.83-.38-1.62.03-.16.06-.33.11-.5-.17-.05-.34-.1-.49-.15-.75-.28-1.22-.68-1.22-1.14s.46-.86,1.22-1.14c.15-.06.32-.11.49-.15-.05-.17-.08-.33-.11-.49-.14-.79-.02-1.39.38-1.62.4-.23.98-.03,1.6.48.12.1.24.21.37.34.13-.13.25-.24.38-.35.62-.51,1.2-.71,1.6-.48.4.23.52.83.38,1.62-.03.16-.06.33-.11.5Zm-1.36-.23c.37.03.72.08,1.04.15.05-.17.08-.33.11-.48.11-.65.05-1.12-.22-1.28-.27-.15-.72.03-1.22.45-.12.1-.24.21-.36.33.22.24.44.52.65.82Zm-.88-.04c.15,0,.3,0,.45,0-.15-.2-.3-.39-.45-.56-.15.17-.3.36-.45.56.15,0,.3,0,.46,0Zm-1.92,2.92c-.05.17-.08.33-.11.48-.11.65-.05,1.12.22,1.28.27.15.72-.03,1.22-.45.12-.1.24-.21.36-.33-.22-.24-.44-.52-.65-.83-.37-.03-.72-.08-1.04-.15Zm.58-.58c-.08-.14-.15-.27-.23-.41-.1.23-.19.46-.26.67.22.05.46.08.71.11-.08-.12-.15-.25-.23-.38Z"/>
    <path class="cls-4" d="m26.25,17.46c-.12-.2-.05-.46.15-.57.2-.12.46-.05.57.15.12.2.05.46-.15.57-.2.12-.46.05-.57-.15m5.74.87c.22,0,.4.18.4.4s-.18.4-.4.4-.4-.18-.4-.4.18-.4.4-.4Zm-3.65,4.5c-.11.19-.35.25-.54.15-.19-.11-.26-.35-.15-.54.11-.19.35-.25.54-.14.19.11.25.35.15.54Z"/>
    <g>
      <path class="cls-1" d="m12.42,31.53v.74h.32v-.74h.44v1.91h-.44v-.76h-.32v.76h-.44v-1.91h.44Z"/>
      <path class="cls-1" d="m13.85,33.06l-.06.38h-.43l.41-1.91h.53l.35,1.91h-.43l-.06-.38h-.31Zm.28-.34l-.05-.36c-.01-.11-.04-.31-.06-.43h0c-.02.12-.05.33-.06.43l-.06.36h.23Z"/>
      <path class="cls-1" d="m14.84,33.44v-1.91h.4l.27.69c.05.12.14.36.19.51h0c-.01-.16-.04-.53-.04-.89v-.31h.38v1.91h-.4l-.26-.64c-.06-.15-.15-.4-.18-.54h0c0,.17.03.48.03.86v.33h-.38Z"/>
      <path class="cls-1" d="m17.55,32.44c0,.72-.26,1.02-.65,1.02-.48,0-.64-.51-.64-.98s.2-.97.66-.97c.52,0,.62.57.62.94Zm-.83.04c0,.45.08.6.19.6.12,0,.18-.23.18-.62,0-.33-.05-.58-.18-.58-.11,0-.19.18-.19.6Z"/>
      <path class="cls-1" d="m18.21,31.53v1.91h-.44v-1.91h.44Z"/>
      <path class="cls-1" d="m19.42,31.53v1.23c0,.25.07.33.15.33s.15-.06.15-.33v-1.23h.44v1.15c0,.49-.18.79-.58.79-.45,0-.59-.31-.59-.79v-1.14h.44Z"/>
      <path class="cls-1" d="m20.46,33.44v-1.91h.4l.27.69c.05.12.14.36.19.51h0c-.01-.16-.04-.53-.04-.89v-.31h.38v1.91h-.4l-.26-.64c-.06-.15-.15-.4-.18-.54h0c0,.17.03.48.03.86v.33h-.38Z"/>
      <path class="cls-1" d="m22.43,31.53v1.91h-.44v-1.91h.44Z"/>
      <path class="cls-1" d="m23,33.44l-.42-1.91h.49l.11.79c.03.2.06.42.08.63h0c.02-.22.05-.43.07-.64l.11-.79h.49l-.43,1.91h-.5Z"/>
      <path class="cls-1" d="m24.93,32.63h-.42v.43h.47v.38h-.91v-1.91h.88v.38h-.44v.36h.42v.36Z"/>
      <path class="cls-1" d="m25.24,31.55c.13-.02.29-.04.45-.04.21,0,.41.03.54.14.12.11.16.24.16.41,0,.19-.09.38-.29.47h0c.12.06.19.18.22.36.03.19.09.46.13.53h-.46c-.02-.05-.07-.25-.09-.45-.03-.23-.08-.28-.18-.28h-.04v.73h-.44v-1.88Zm.44.81h.06c.14,0,.21-.12.21-.26s-.05-.24-.19-.25c-.03,0-.06,0-.08.01v.5Z"/>
      <path class="cls-1" d="m26.61,33c.08.05.22.07.33.07.16,0,.24-.07.24-.17,0-.12-.08-.17-.25-.27-.31-.18-.36-.39-.36-.54,0-.31.2-.59.65-.59.13,0,.26.03.31.07l-.06.38c-.06-.03-.14-.07-.25-.07-.15,0-.22.08-.22.17,0,.08.04.14.26.26.26.15.35.35.35.54,0,.36-.27.6-.67.6-.16,0-.32-.04-.39-.07l.06-.38Z"/>
      <path class="cls-1" d="m28.25,31.53v1.91h-.44v-1.91h.44Z"/>
      <path class="cls-1" d="m28.77,31.93h-.33v-.41h1.11v.41h-.33v1.5h-.44v-1.5Z"/>
      <path class="cls-1" d="m30.04,33.44v-.7l-.42-1.21h.47l.11.45c.03.12.06.26.08.39h0c.02-.13.04-.27.07-.4l.09-.44h.45l-.42,1.2v.72h-.44Z"/>
      <path class="cls-1" d="m32.64,32.44c0,.72-.26,1.02-.65,1.02-.48,0-.64-.51-.64-.98s.2-.97.66-.97c.52,0,.62.57.62.94Zm-.83.04c0,.45.08.6.19.6.12,0,.18-.23.18-.62,0-.33-.05-.58-.18-.58-.11,0-.19.18-.19.6Z"/>
      <path class="cls-1" d="m32.86,31.53h.88v.38h-.44v.41h.41v.36h-.41v.75h-.44v-1.91Z"/>
      <path class="cls-1" d="m34.93,31.53v1.91h-.44v-1.91h.44Z"/>
      <path class="cls-1" d="m35.25,33.44v-1.91h.4l.27.69c.05.12.14.36.19.51h0c-.01-.16-.04-.53-.04-.89v-.31h.38v1.91h-.4l-.26-.64c-.06-.15-.15-.4-.18-.54h0c0,.17.03.48.03.86v.33h-.38Z"/>
      <path class="cls-1" d="m36.78,31.55c.1-.02.25-.04.41-.04.26,0,.44.06.57.18.17.16.24.41.24.77s-.1.66-.28.81c-.13.12-.32.18-.61.18-.13,0-.26-.01-.33-.02v-1.88Zm.44,1.54s.04,0,.06,0c.15,0,.28-.18.28-.65,0-.35-.08-.58-.27-.58-.02,0-.04,0-.06,0v1.22Z"/>
      <path class="cls-1" d="m38.65,31.53v1.23c0,.25.07.33.15.33s.15-.06.15-.33v-1.23h.44v1.15c0,.49-.18.79-.58.79-.45,0-.59-.31-.59-.79v-1.14h.44Z"/>
      <path class="cls-1" d="m39.66,33c.08.05.22.07.33.07.16,0,.24-.07.24-.17,0-.12-.08-.17-.25-.27-.31-.18-.36-.39-.36-.54,0-.31.2-.59.65-.59.13,0,.26.03.31.07l-.06.38c-.06-.03-.14-.07-.25-.07-.15,0-.22.08-.22.17,0,.08.04.14.26.26.26.15.35.35.35.54,0,.36-.27.6-.67.6-.16,0-.32-.04-.39-.07l.06-.38Z"/>
      <path class="cls-1" d="m41.06,31.93h-.33v-.41h1.11v.41h-.33v1.5h-.44v-1.5Z"/>
      <path class="cls-1" d="m42.02,31.55c.13-.02.29-.04.45-.04.21,0,.41.03.54.14.12.11.16.24.16.41,0,.19-.09.38-.29.47h0c.12.06.19.18.22.36.03.19.09.46.13.53h-.46c-.02-.05-.07-.25-.09-.45-.03-.23-.08-.28-.18-.28h-.04v.73h-.44v-1.88Zm.44.81h.06c.14,0,.21-.12.21-.26s-.05-.24-.19-.25c-.03,0-.06,0-.08.01v.5Z"/>
      <path class="cls-1" d="m43.63,33.44v-.7l-.42-1.21h.47l.11.45c.03.12.06.26.08.39h0c.02-.13.04-.27.07-.4l.09-.44h.45l-.42,1.2v.72h-.44Z"/>
    </g>
  </g>
</svg>